<?xml version="1.0" encoding="UTF-8"?>
<svg width="30px" height="15px" viewBox="0 0 30 15" version="1.1" xmlns="http://www.w3.org/2000/svg" xmlns:xlink="http://www.w3.org/1999/xlink">
    <!-- Generator: Sketch 54.1 (76490) - https://sketchapp.com -->
    <title>Icon Down Copy</title>
    <desc>Created with Sketch.</desc>
    <g id="Symbols" stroke="none" stroke-width="1" fill="none" fill-rule="evenodd">
        <g id="Icon-Down-Copy" transform="translate(0.000000, -0.548571)" fill="#FFFFFF">
            <rect id="Rectangle" x="0" y="6.5" width="15.5" height="3.26315789" rx="1.63157895"></rect>
            <rect id="Rectangle-Copy" x="-9.41469125e-14" y="0.9" width="18.7631579" height="3.26315789" rx="1.63157895"></rect>
            <rect id="Rectangle-Copy-2" x="0" y="12.2121667" width="23.6578947" height="3.26315789" rx="1.63157895"></rect>
            <g id="Down" transform="translate(23.892306, 5.500000) rotate(180.000000) translate(-23.892306, -5.500000) translate(17.392306, 0.000000)">
                <path d="M4.89689126,3.54519688 L11.8275988,3.9753319 C12.6542363,4.02663486 13.3112903,4.68914207 13.3557593,5.51617541 L13.3627358,5.6459235 C13.4045339,6.42328385 12.8082429,7.08734299 12.0308826,7.12914111 C11.9765833,7.13206074 11.9221607,7.13183583 11.8678874,7.12846751 L4.9371799,6.69833249 C4.11054235,6.64702954 3.45348835,5.98452233 3.40901935,5.15748899 L3.40204289,5.0277409 C3.36024477,4.25038055 3.95653578,3.58632141 4.73389612,3.54452329 C4.78819535,3.54160366 4.84261803,3.54182857 4.89689126,3.54519688 Z" id="Rectangle-Copy-4" transform="translate(8.382389, 5.336832) rotate(120.000000) translate(-8.382389, -5.336832) "></path>
                <path d="M0.761142408,3.97760541 L7.95210181,3.54271063 C8.72936085,3.49570356 9.39756055,4.08768975 9.44456762,4.86494879 C9.44784616,4.91915926 9.44798972,4.97351387 9.4449976,5.0277409 L9.43784628,5.15734586 C9.39220994,5.98442411 8.7340657,6.64605423 7.90724008,6.69605899 L0.716280673,7.13095377 C-0.0609783661,7.17796083 -0.729178068,6.58597464 -0.776185134,5.8087156 C-0.779463674,5.75450514 -0.779607239,5.70015053 -0.776615113,5.6459235 L-0.769463799,5.51631853 C-0.723827459,4.68924029 -0.0656832208,4.02761017 0.761142408,3.97760541 Z" id="Rectangle-Copy-3" transform="translate(4.334191, 5.336832) rotate(60.000000) translate(-4.334191, -5.336832) "></path>
            </g>
        </g>
    </g>
</svg>