<?xml version="1.0" encoding="UTF-8"?>
<svg width="1455px" height="1171px" viewBox="0 0 1455 1171" version="1.1" xmlns="http://www.w3.org/2000/svg" xmlns:xlink="http://www.w3.org/1999/xlink">
    <!-- Generator: Sketch 52.1 (67048) - http://www.bohemiancoding.com/sketch -->
    <title>Background</title>
    <desc>Created with Sketch.</desc>
    <defs>
        <linearGradient x1="49.9999981%" y1="109.906805%" x2="49.9999981%" y2="-2.09579541%" id="linearGradient-1">
            <stop stop-color="#1A1C25" offset="0%"></stop>
            <stop stop-color="#0B0C10" offset="100%"></stop>
        </linearGradient>
    </defs>
    <g id="Pages" stroke="none" stroke-width="1" fill="none" fill-rule="evenodd">
        <g id="Background">
            <rect id="Rectangle-3" fill="#1F2833" x="0" y="0" width="1455" height="1171"></rect>
            <path d="M15,9.09494702e-13 L15,1171 L265.847738,1171 L472.189112,1169.75642 L482.50618,1164.19835 C477.429963,1161.96498 474.905574,1160.82291 469.774479,1158.58953 L446.588513,1158.58953 L494.359834,1156.58457 L487.966544,1155.69629 L465.00009,1155.69629 L658.006104,1149.6814 L712.884129,1147.39727 L724.51827,1141.76307 C564.109803,1135.97659 471.091551,1132.67729 327.695272,1127.57605 L662.862809,1127.57605 C629.826238,1126.02792 613.93905,1125.1904 582.301869,1123.61688 C575.579311,1117.29744 572.314068,1114.15041 566.167729,1107.93249 L476.68911,1103.9987 L455.670826,1103.9987 C535.984816,1100.92781 575.551871,1099.35429 653.231716,1096.38492 L660.832322,1092.55264 C622.884168,1091.02989 604.088444,1090.26851 566.826266,1088.72037 C567.457363,1087.19762 567.759192,1086.46162 568.417728,1084.91348 L576.649432,1081.15735 C556.591514,1078.13721 546.768347,1076.61446 527.5336,1073.54356 C591.027475,1072.07156 622.472583,1071.28481 684.814019,1069.81281 L704.158523,1069.81281 C706.902424,1068.34081 708.301814,1067.57943 710.990837,1066.08205 L660.585371,1062.40206 L641.570135,1062.40206 C652.54574,1059.43268 658.033543,1057.98606 668.487807,1055.01669 C639.292697,1052.07269 624.996972,1050.62607 597.146374,1047.73283 C569.707362,1043.39298 556.618953,1041.21036 531.292744,1036.97202 L720.182906,1033.39354 C722.652417,1031.94692 723.859734,1031.26168 726.246928,1029.81506 C689.560968,1027.02334 671.615854,1025.6021 636.658552,1022.785 C644.478671,1019.99328 648.292693,1018.6228 655.865861,1015.88184 C634.792699,1013.09012 624.530509,1011.69426 604.609786,1008.97867 L595.856741,1005.57785 L580.024431,1005.57785 L582.219552,1002.20241 L548.442127,998.801582 L532.993963,998.801582 L713.487787,995.451517 C715.710347,994.106415 716.753029,993.421175 718.975589,992.101452 C691.289626,989.436628 677.817071,988.116905 651.777448,985.528218 C610.179905,982.863394 589.984792,981.543671 550.993955,978.980364 C587.350647,976.442436 604.993932,975.097334 639.237819,972.508648 C638.11282,971.239684 637.56404,970.605202 636.493918,969.336238 C643.298793,966.798309 646.673792,965.503966 653.204277,963.016797 C621.512217,960.478869 606.256126,959.235284 576.951261,956.773494 C618.823194,954.235566 641.076233,953.068119 683.96341,950.606329 L736.344484,950.606329 C738.073142,949.362744 738.896313,948.77902 740.515214,947.560815 C735.90546,943.906199 733.765217,942.129649 729.704243,938.55117 C701.771329,936.165518 688.353652,934.972692 662.83537,932.637798 C664.344516,930.302904 665.112808,929.186216 666.649393,926.876701 C665.667541,925.010409 664.797327,923.095616 664.042687,921.140984 C647.579279,918.856849 639.841478,917.74016 625.298801,915.506784 C625.298801,914.762325 691.042675,913.840211 822.530422,912.740442 C820.907863,914.683697 819.176856,916.547374 817.344449,918.323884 L798.43897,918.323884 C800.140188,923.425119 802.03348,924.541808 805.874942,926.825943 C804.283479,929.135457 803.43287,930.302904 801.621895,932.637798 C786.942023,934.972692 779.2591,936.165518 763.207278,938.525791 C758.899353,939.743997 756.731671,940.353099 752.231673,941.545925 L744.329237,944.515301 C809.112745,949.971847 842.807853,951.215431 912.695017,953.651842 C890.524295,956.18977 878.972471,957.382596 855.073091,959.844387 L825.10969,959.844387 C821.679813,963.625899 819.81396,965.478587 815.835303,969.310858 C831.118833,971.848786 838.99383,973.092371 855.237725,975.681058 L934.207203,975.681058 C931.051717,978.218986 929.377937,979.589467 925.810865,982.178153 C872.524303,984.716081 844.975535,986.111942 788.286535,988.776766 L783.896293,992.076073 L951.850488,995.400759 C911.570018,997.938687 890.798685,999.461443 848.103582,1002.15165 C841.381024,1006.18695 837.841391,1008.24267 830.460297,1012.30336 L808.728599,1012.30336 C806.917624,1013.67384 805.984698,1014.3337 804.063967,1015.72956 C809.030428,1018.4959 811.554817,1019.89176 816.740791,1022.68349 C794.789581,1025.50059 783.813976,1026.92182 760.820083,1029.73893 C832.381028,1032.55603 868.98467,1033.97726 943.838296,1036.84512 C924.411476,1039.6876 914.396236,1041.10884 893.981611,1044.00208 L863.798697,1044.00208 C859.957235,1046.89532 858.009065,1048.36732 854.00297,1051.26055 L798.576165,1051.26055 L792.896289,1054.88979 L805.92982,1058.54441 L824.752982,1058.54441 C805.298723,1061.4884 795.3658,1062.98578 775.060931,1065.95516 C834.219442,1068.89915 864.374916,1070.42191 925.755987,1073.39129 C903.585265,1076.38604 892.280392,1077.93418 869.259061,1081.00507 C870.137109,1084.02521 870.603572,1085.54796 871.454182,1088.61886 L803.762138,1088.61886 L797.478604,1092.45113 C819.676765,1095.49664 830.92676,1097.04478 853.893214,1100.06491 L951.109635,1100.06491 C911.487701,1104.7347 891.127954,1107.04421 849.448094,1111.73938 L879.960275,1119.60696 C852.87797,1122.80475 832.463345,1125.1904 811.362744,1127.60143 L1062.42971,1127.60143 C1060.42666,1128.48971 1058.28642,1129.42874 1055.78947,1130.46929 L759.777401,1136.12887 C755.003013,1138.38762 752.643258,1139.50431 747.951187,1141.78845 L795.557873,1145.59534 L949.079148,1151.58485 L987.493765,1151.58485 C976.51816,1154.8334 971.030358,1156.45767 959.670607,1159.7316 C956.185852,1161.25436 955.993779,1162.26953 955.69195,1164.19835 C1022.7529,1165.65343 1106.12176,1167.50612 1205.79855,1169.75642 L1454.99966,1169.75642 L1455,9.09494702e-13 L15,9.09494702e-13 Z" id="Shape" fill="url(#linearGradient-1)" fill-rule="nonzero"></path>
        </g>
    </g>
</svg>